# xmcd
#
# Track frame offsets: 
#        150
#        14460
#        36380
#        53908
#        68485
#        83509
#        97761
#        112826
#        125053
#        160337
#
# Disc length: 2244 seconds
#
# Revision: 0
# Processed by: cddbd v1.5.2PL0 Copyright (c) Steve Scherf et al.
# Submitted via: ExactAudioCopy v0.99pb4
#
DISCID=7408c20a
DTITLE=Wade Hatton - A Million Miles From Nashville
DYEAR=2006
DGENRE=Country
TTITLE0=A Million Miles From Nashville
TTITLE1=(AKA:Playin´for Tips and Whiskey)
TTITLE2=Waylon at the Moon
TTITLE3=Battered by the Bottle
TTITLE4=A Case for the Broken Hearted
TTITLE5=(AKA:24 Beer Ago)
TTITLE6=Diamond and Tears
TTITLE7=If Whiskey is the Answer
TTITLE8=I Could Do Better
TTITLE9=Barely Survive/Broken Solitude
EXTD=
EXTT0=
EXTT1=
EXTT2=
EXTT3=
EXTT4=
EXTT5=
EXTT6=
EXTT7=
EXTT8=
EXTT9=
PLAYORDER=
